# xmcd
#
# Track frame offsets: 
#        150
#        9483
#        23382
#        36196
#        49120
#        64407
#        88863
#        105072
#        123288
#        134430
#        151620
#        162674
#        175494
#        186934
#        202604
#        216842
#        231350
#        242524
#
# Disc length: 3484 seconds
#
# Revision: 0
# Processed by: cddbd v1.5.2PL0 Copyright (c) Steve Scherf et al.
# Submitted via: ExactAudioCopy v1.0b3
#
DISCID=e60d9a12
DTITLE=Various Artist - Biesiada hrcerska - Dalej wesolo
DYEAR=2007
DGENRE=Folk
TTITLE0=Gdy strumyk plynie z wolna
TTITLE1=Lato, lato
TTITLE2=Plonie ognisko w lesie
TTITLE3=Jak dobrze nam zdobywac gory
TTITLE4=Plonie ognisko i szumia knieje
TTITLE5=Modlitwa harcerska
TTITLE6=Pod zaglami Zawiszy
TTITLE7=Badz z nami
TTITLE8=Dalej wesolo
TTITLE9=Harcerska ballada
TTITLE10=Ledwie skowronek
TTITLE11=Gdy juz ciemna noc zapada
TTITLE12=Gdy szedlem raz od Warty
TTITLE13=Harcerska dola
TTITLE14=Czerwona roza, bialy kwiat (Harcerz i harcerka)
TTITLE15=Juz rozpalilo sie ognisko
TTITLE16=Hymn harcerski (Wszystko co nasze Polsce oddamy)
TTITLE17=Ogniska juz dogasa blask (Piesn pozegnalna)
EXTD=
EXTT0=
EXTT1=
EXTT2=
EXTT3=
EXTT4=
EXTT5=
EXTT6=
EXTT7=
EXTT8=
EXTT9=
EXTT10=
EXTT11=
EXTT12=
EXTT13=
EXTT14=
EXTT15=
EXTT16=
EXTT17=
PLAYORDER=
